<?xml version="1.0" encoding="utf-8"?>
<!-- Generator: Adobe Illustrator 21.1.0, SVG Export Plug-In . SVG Version: 6.00 Build 0)  -->
<svg version="1.1" id="Layer_1" xmlns="http://www.w3.org/2000/svg" xmlns:xlink="http://www.w3.org/1999/xlink" x="0px" y="0px"
	 viewBox="0 0 694.5 246.9" style="enable-background:new 0 0 694.5 246.9;" xml:space="preserve">
<style type="text/css">
	.st0{fill:#FFFFFF;}
</style>
<g>
	<path class="st0" d="M572,1.3H122C54.7,1.3,0.1,55.9,0.1,123.2S54.7,245.1,122,245.1h450c67.3,0,121.9-54.6,121.9-121.9
		S639.3,1.3,572,1.3z M566.2,233.2H130.9c-64.3,0-116.3-49.3-116.3-110.2S66.7,12.8,130.9,12.8h435.3c64.3,0,116.3,49.3,116.3,110.2
		C682.6,183.9,630.5,233.2,566.2,233.2z"/>
	<path class="st0" d="M125,26.9c-53,0-96,43-96,96s43,96,96,96s96-43,96-96S178,26.9,125,26.9z M125,204.9
		c-45.3,0-82.1-36.7-82.1-82.1c0-45.3,36.7-82.1,82.1-82.1c45.3,0,82.1,36.7,82.1,82.1S170.3,204.9,125,204.9z"/>
	<path class="st0" d="M142.9,120.8c-2.2-4.2-5-7.4-8.2-9.7c-3.2-2.3-6.6-3.4-10.2-3.4c-4,0-7.3,1.3-9.9,4c-2.6,2.7-3.9,6.2-3.9,10.5
		c0,3.9,0.9,7.5,2.8,11c1.9,3.4,4.7,6.8,8.5,10c-4.5,4.2-9.3,7.3-14.5,9.5c-5.2,2.1-10.6,3.2-16.3,3.2c-6.8,0-12.2-1.5-16.2-4.4
		c-4-3-6-6.9-6-11.7c0-5.3,2.3-9.9,6.8-13.8c4.5-3.9,10-5.8,16.3-5.8c4.3,0,7.7,1,10.2,3s3.8,4.6,3.8,8c0,4-1.6,7.3-4.8,9.9
		c-3.2,2.6-7.3,3.9-12.4,3.9c-0.9,0-1.9,0-2.9-0.1c-0.2,0-0.3,0-0.4,0c-0.3,0-0.5,0-0.6,0.1c-0.1,0.1-0.2,0.2-0.2,0.3
		c0,0.4,0.3,0.6,1.1,0.8c0.8,0.2,1.9,0.3,3.3,0.3c5.5,0,10-1.6,13.4-4.6c3.5-3.1,5.2-7,5.2-11.9c0-4.1-1.6-7.3-4.8-9.9
		c-3.2-2.5-7.3-3.8-12.5-3.8c-6.5,0-12.1,2.1-16.8,6.3c-4.7,4.2-7.1,9.2-7.1,15.1c0,6,2.2,10.8,6.6,14.3c4.5,3.5,10.5,5.2,18.2,5.2
		c5.8,0,11.4-1.1,16.6-3.2c5.2-2.1,10.3-5.4,15.2-9.9c2.8,1.9,5.7,3.4,8.5,4.5c2.9,1.1,5.8,1.8,8.9,2.1c-0.2,0.4-0.5,1.4-1.1,2.9
		c-0.6,1.5-1.1,2.7-1.4,3.6l6.9-0.7l2.3-4.9c3.5-0.3,6.6-1.3,9.3-2.9c2.7-1.6,4-3.1,4-4.4c0-0.1,0-0.2-0.1-0.2
		c0-0.1-0.1-0.1-0.1-0.1c-0.2,0-0.7,0.4-1.5,1.1c-3,3-6.7,4.7-10.9,4.9c5.1-12.8,10.4-24,15.8-33.7c5.4-9.7,11.3-18.6,17.7-26.6
		c-6.5,3-12.7,6.7-18.4,11.2C157.3,105.3,150.6,111.9,142.9,120.8z M116.2,134.2c-1.5-2.7-2.2-5.8-2.2-9.1c0-4.1,1.3-7.6,3.8-10.5
		c2.5-2.9,5.5-4.3,9.1-4.3c3.2,0,6,1,8.6,2.9c2.6,1.9,4.8,4.8,6.6,8.5c-0.8,0.9-2,2.2-3.5,4c-6.5,7.5-11.6,13-15.4,16.5
		C120,139.6,117.7,137,116.2,134.2z M143.4,141.7c-0.4,2.4-1.2,5-2.2,7.6c-3.4-0.3-6.4-1-9.1-2.1c-2.8-1-5.3-2.5-7.7-4.3
		c3.1-3,7.5-7.7,13.2-14.1c2.2-2.6,3.9-4.5,5.1-5.8c0.5,1.6,0.9,3.3,1.1,5.2c0.2,1.9,0.3,3.9,0.3,6
		C144.1,136.7,143.9,139.3,143.4,141.7z M158,117.5c-5.2,7.9-9.6,16-13.4,24.4c0.3-1.5,0.4-2.9,0.5-4.1c0.1-1.3,0.2-2.5,0.2-3.7
		c0-2.2-0.1-4.3-0.4-6.3c-0.2-2-0.7-4-1.2-5.8c6.1-7.4,11.9-13.4,17.3-18.1c5.4-4.7,10.5-8,15.2-10.1
		C169.2,101.7,163.2,109.6,158,117.5z"/>
	<path class="st0" d="M416.2,127.2c0-2.6-2.2-5-6.4-7.2c4.3-10.2,10.7-21.1,19.1-32.7c0.2-0.3,0.3-0.5,0.3-0.7
		c0-0.6-0.6-0.9-1.7-0.9c-2.5,0-4.2,0.6-5.2,1.7c-3.6,4.3-8,12.3-13,23.7c-1.1,2.5-2.1,4.9-3.1,7.3c-3.2-1.1-7.6-2-13.1-2.8
		c3.2-8.6,4.8-15.4,4.8-20.2c0-4.8-1.7-7.3-5.1-7.3c-1.3,0-3,0.4-5,1.3c-2.4,1-3.6,2-3.6,3.1c0,1.2,0.7,1.3,1,1.3
		c0.1,0,0.3,0,2.4-1.2c1.3-0.7,2.4-1.1,3.2-1.1c0.5,0,2.2,0,2.2,3.8c0,4.3-1.7,10.9-5.2,19.8c-1.8-0.1-3.9-0.2-6.2-0.2
		c-11.3,0-21.8,1.4-31.1,4c-13.8,4-20.9,10.5-20.9,19.3c-0.8,0-1.6,0-2.5,0h-0.3c0.3-1.1,0.4-2.2,0.4-3.1c0-2.3-0.7-4.1-1.9-5.4
		c-1.6-1.5-4.1-2.3-7.5-2.2c6.1-4.6,10.7-8.4,13.5-11.3c5.7-5.9,8.7-11.3,8.7-15.9c0-6.6-4.6-10-13.6-10c-5,0-10.5,0.9-16.3,2.7
		c-5,1.6-9.9,3.6-14.6,6.2c-7,3.8-10.4,7.2-10.4,10.6c0,0.8,0.3,1.7,1.8,2.1l0.2,0l0.1-0.1c4.6-4.7,10.9-8.9,18.5-12.6
		c8.1-3.8,15.3-5.7,21.4-5.7c5.8,0,8.6,2,8.6,6.1c0,4.2-3.3,9.6-9.8,16.1c-4.8,4.8-10.1,9.1-15.5,12.6c-0.6,0.4-2,1-4.2,1.6
		c-3.2,1-3.9,1.6-4.2,1.9c-0.9,1-1.4,1.9-1.4,2.8c0,0.8,0.5,1.3,1.5,1.3c0.1,0,0.2,0,6.3-2.6c3.6-1.5,6.9-2.3,9.9-2.3
		c3.4,0,5.1,1.2,5.1,3.7c0,1-0.3,2.3-0.8,3.9c-9.4,0.7-18.3,3.4-26.4,8.2c-8.9,5.3-15.3,12.3-19,20.7c-1.3,2.9-2,5.7-2,8.1
		c0,4.9,2.3,7.4,6.8,7.4c3.7,0,8.4-1.9,13.8-5.6c10.7-7.1,20.2-17.8,28-31.9c0.8-1.4,1.5-2.8,2.1-4.2c1.1-0.1,2.3-0.1,3.5-0.1
		c0.1,0,0.2,0,0.4,0c0.6,3.6,2.5,6.5,5.6,8.7c3.4,2.4,7.5,3.6,12.2,3.6c8.1,0,16.8-3.9,25.7-11.6c7.7-6.6,13.9-14.3,18.2-22.7
		c5.5,0.6,10,1.5,13.4,2.6c-3.5,9.1-5.3,15.9-5.3,20.3c0,4.5,1.7,6.8,5.1,6.8c1,0,2.1-0.4,3.6-1.3c1.5-0.9,2.3-1.8,2.3-2.7
		c0-0.8-0.5-1.3-1.3-1.3c-0.2,0-0.3,0-2.1,1.3c-1.3,0.9-2,1.1-2.3,1.1c-0.4,0-1.8,0-1.8-3.4c0-4.2,1.8-10.7,5.3-19.4
		c3.7,1.8,4.5,3.2,4.5,4c0,0.2-0.1,0.4-0.2,0.6c-0.3,0.4-0.4,0.7-0.4,1c0,1.1,0.6,1.6,1.6,1.6c0.6,0,1.2-0.4,1.6-1.1
		C416,128.5,416.2,127.8,416.2,127.2z M352.9,122.2c8.7-2.5,18.2-3.8,28.4-3.8c1.7,0,3.3,0.1,4.7,0.2c-3.8,7.6-9.1,14.6-15.7,20.6
		c-7.9,7.2-15.6,10.8-22.8,10.8c-3.6,0-6.7-0.9-9.3-2.6c-2.2-1.5-3.6-3.3-4.2-5.6c1.4,0.4,2.3,0,2.4-1l0-0.1l0-0.1
		c-0.3-0.8-1.2-1.5-2.7-1.8C334.1,131.4,340.5,125.8,352.9,122.2z M321.1,141.5c-2.9,5.8-6.8,11.8-11.7,18
		c-5.5,7-10.7,12.1-15.5,15.2c-4.1,2.6-7.4,4-9.9,4c-3,0-4.4-1.6-4.4-5c0-1.8,0.6-4.2,1.7-6.8c1.3-3,3.4-6.1,6.2-9.1
		C296,148.5,307.3,143.1,321.1,141.5z"/>
	<path class="st0" d="M481.6,120.1c3.8-14.4,8.5-26.8,14.2-36.6c0.5-0.8,0.6-1.2,0.6-1.4c0-0.8-0.5-1.3-1.3-1.3
		c-0.4,0-1.2,0.2-3.4,1.5c-1.7,1-2.6,1.8-2.9,2.4c-1.5,3.2-2.7,5.9-3.5,8c-0.3-0.5-0.8-0.8-1.5-0.8c-0.5,0-0.9,0.2-1.2,0.7
		c-2.6,3.4-4.5,6.1-5.7,7.9c-4.4,5.9-8.9,11.6-13.2,16.9c-14.7-0.1-25.6,0.9-32.4,2.9c-4.1,1.1-7.7,3.3-10.8,6.5
		c-3.4,3.5-5.1,7.4-5.1,11.6c0,3.8,1.4,6.7,4.1,8.6c2.3,1.7,5.4,2.6,9.1,2.6c5.6,0,11-2,16.3-6c2.9-2.3,7.2-6.5,12.6-12.5
		c3.3-3.7,5.9-6.8,7.9-9.4c4.3,0.1,8.1,0.3,11.4,0.8c-1.6,8.5-2.5,15-2.5,19.5c0,4.7,1.4,7,4.2,7c1,0,2.1-0.4,3.5-1.3
		c1.5-0.9,2.2-1.8,2.2-2.7c0-1.4-0.9-1.5-1.3-1.5c-0.2,0-0.6,0.1-2.1,1.4c-1.2,1-1.9,1.2-2.3,1.2c0,0-0.6,0-0.6-3.2
		c0-4.8,1-11.4,2.9-19.7c0.3,0.1,0.9,0.3,1.8,0.7c1.8,0.7,1.9,0.7,2,0.7c0.9,0,1.5-0.5,1.5-1.4C486.1,122.1,484.7,121.2,481.6,120.1
		z M477.5,119c-2.9-0.7-5.9-1.1-9-1.4c2.7-3.6,6.1-8.3,10.4-14.3c2.3-3.1,3.9-5.4,5-6.9C481.3,103.5,479.2,111,477.5,119z
		 M460.2,121.6c-2,2.4-3.9,4.5-5.8,6.5c-4.8,5.3-8.9,9.2-12.1,11.4c-4.9,3.5-9.9,5.2-15,5.2c-2.4,0-4.3-0.5-5.8-1.5
		c-1.8-1.1-2.7-2.8-2.7-5c0-3.3,1.4-6.3,4.2-9.1c2.5-2.4,5.4-4.1,8.7-5.1c5.9-1.6,14.8-2.4,26.4-2.4H460.2z"/>
	<path class="st0" d="M566,90.1c-0.5,0-1.1,0.2-1.4,1.3c-0.5,1.7-1,2.8-1.3,3.4c-3.7,7.5-12.4,14.6-25.7,21
		c3.7-8.8,5.6-16.4,5.6-22.5c0-5.4-1.9-8.1-5.6-8.1c-1.3,0-2.9,0.4-4.9,1.2c-2.5,1.1-3.7,2.1-3.7,3.2c0,1.2,0.8,1.3,1.1,1.3
		c0.1,0,0.2,0,2.3-1.2c1.3-0.7,2.4-1.1,3.2-1.1c0.6,0,2.6,0,2.6,4.7c0,5.2-1.6,11.9-4.8,20c-1.2-2.3-2.5-5.3-3.9-8.8
		c-0.2-0.5-0.5-0.8-0.9-0.8c-0.7,0-1.2,0.8-1.7,2.4c-0.4,1.5-0.6,2.6-0.6,3.3c0,1.2,1.5,4.1,4.7,8.8c-3.9,7.6-8.4,14-13.3,19.1
		c-6.5,6.7-13.2,10.1-19.8,10.1c-4.7,0-7-2.1-7-6.3c0-3.4,1.3-6.9,4-10.4c4.4-5.8,10.5-10.3,18.1-13.3c1.1-0.4,1.7-0.9,1.7-1.5
		c0-0.3-0.1-1.1-1.3-1.1c-4.7,0-10.3,3-16.5,8.9c-6.5,6-9.8,11.7-9.8,16.7c0,3.2,1.3,5.8,3.8,7.5c2.1,1.5,4.8,2.3,8.1,2.3
		c6.9,0,14-3.1,20.9-9.3c5.4-4.9,10.2-11,14.3-18.2c3.8,5.1,7.6,9.7,11.4,13.6c6.2,6.3,11,9.3,14.6,9.3c1.5,0,2.7-0.5,3.6-1.6
		c0.9-1.1,1.4-2.4,1.4-4c0-1.1,0-4.6-2.1-4.6c-0.8,0-1.2,0.5-1.2,1.3c0,0.2,0,0.5,0.3,1.6c0.2,0.8,0.2,1.4,0.2,1.8
		c0,1.6-0.6,2.3-2,2.3c-2.8,0-7.2-3.3-13.1-9.7c-4.3-4.7-7.8-9.2-10.6-13.5c19.8-9,30.1-18,30.6-26.9v-0.3c0-0.7-0.1-1.2-0.4-1.6
		C566.9,90.3,566.5,90.1,566,90.1z"/>
</g>
</svg>
