<svg id="Слой_1" data-name="Слой 1" xmlns="http://www.w3.org/2000/svg" viewBox="0 0 37.27 32.59"><defs><style>.cls-1,.cls-7{fill:#e3e3e3;}.cls-2{fill:#fff;}.cls-2,.cls-3,.cls-4,.cls-5,.cls-6,.cls-7,.cls-8,.cls-9{fill-rule:evenodd;}.cls-3{fill:#807f7d;}.cls-4{fill:#c05d4c;}.cls-5{fill:#6c6a67;}.cls-6{fill:#c9c9c9;}.cls-8{fill:#c8a299;}.cls-9{fill:#231300;}</style></defs><title>логотип_цвет</title><circle class="cls-1" cx="19.39" cy="16.3" r="16.3"/><path class="cls-2" d="M14.8,30l-.28,1.83.4.12.43-1.81-.2-.4L14.8,30Zm1.7,2.32q-.61-.11-1.2-.26l.45-1.9h0a.2.2,0,0,0,0-.14l-.25-.5.64-.49.49.47-.39.64h0a.2.2,0,0,0,0,.13l.3,2Zm1.52.2.49-.56h0l.7-.8h0L17,29.61l-.42.7.3,2.1Q17.46,32.49,18,32.54Z"/><path class="cls-3" d="M26.1,27.93,26,26.25V26h.21l2.21-.09-1-3.4L27.17,22l-.31-1a48.29,48.29,0,0,1-3.72,6c-1.22,1.66-2.6,3.27-4.5,5.44Z"/><path class="cls-4" d="M12,6.12a2.5,2.5,0,0,1,.85,2.43c1.4-.06,2.82-.06,4.12,0,2.26,0,4.1.16,4.74.21,1.36.11,2.72.25,4,.43s2.44.37,3.57.59a4.89,4.89,0,0,1,1.11-1.86,6,6,0,0,0,.8-1.13c0-.42-.55-.84-1.46-1.21a23.82,23.82,0,0,0-5.42-1.26,51,51,0,0,0-6.73-.46c-3.3,0-6,.38-6.33,1.23A2.88,2.88,0,0,0,12,6.12Z"/><polygon class="cls-5" points="22.48 11.85 22.48 11.83 22.52 11.68 22.48 11.85"/><polygon class="cls-5" points="22.52 11.68 22.53 11.62 22.52 11.65 22.52 11.68"/><polygon class="cls-5" points="22.35 12.41 22.36 12.36 22.36 12.35 22.35 12.41"/><polygon class="cls-5" points="22.36 12.35 22.39 12.24 22.36 12.34 22.36 12.35"/><path class="cls-5" d="M13.4,10.8H7.24L7.1,11h0l-.15,0h0l-.16,0h0l-.16,0h0l-.17,0h0l-.15,0h0l-.14,0H6l-.14,0h0l-.11,0h0l-.13,0h0l-.13,0h0l-.13,0C5.31,12,7,12.75,9.67,13.44h.21l.06,0h0l.13,0h0l.11,0h0l.11,0h0l.06,0h.84l.08,0h.48l.25,0h0c0-.15,0-.29.08-.45h0q0-.17.07-.33a4.1,4.1,0,0,1,.23-.63A10.69,10.69,0,0,1,13.4,10.8Z"/><path class="cls-5" d="M27.39,15.38h4.67c2.61-.26,4.34-.71,4.68-1.31l-.11-.05h0l-.11,0h0l-.09,0h0l-.12,0h0l-.11,0h0l-.12,0h0l-.13,0h0l-.14,0h0l-.15,0h0l-.14,0,0,0-.14,0h0l-.13,0h0l-.15,0-.05,0-.13,0h0l-.16,0h0l-.16,0h0L34,13H34l-.16,0h0l-.15,0-.07,0-.16,0h0l-.17,0h0l-.2,0h0l-.15,0-.08,0h0l-.14,0h0l-.08,0-.14,0h-.06l-.18,0-.09,0h0l-.15,0h0l-.21,0h0l-.16,0h-.05l-.14,0h0l-.11,0h0l-.16,0-.12,0h0l-.12,0h0l-.16,0h-.05l-.11,0h-.06l-.1,0-.16,0h-.11l-.15,0h-.07l-.17,0h0l-.13,0h0l-.17,0h0l-.19,0h-.1l-.17,0-.14,0h0l-.13,0h0a30.46,30.46,0,0,0-1,3.47Z"/><path class="cls-4" d="M18.49,28.15a10.56,10.56,0,0,0,3.79-2,13.68,13.68,0,0,0,2.12-2.13,24.43,24.43,0,0,0,2.3-3.63,15,15,0,0,1,0-4.43,25.71,25.71,0,0,1,1.12-4.16c-.81-.11-1.64-.21-2.49-.3q-.14,1.17-.34,2.25a19.73,19.73,0,0,1-3,7.84l0,1a.11.11,0,0,1-.1.11.11.11,0,0,1-.1-.11l0-.78-.32.4,0,1.05a.1.1,0,0,1-.2,0l0-.83,0,0-.29.32,0,1.21a.1.1,0,1,1-.2,0l0-1-.3.28,0,1.45a.1.1,0,0,1-.2,0l0-1.28-.33.26,0,1.72a.1.1,0,1,1-.2,0l0-1.58-.4.26,0,1.7a.1.1,0,0,1-.2,0l0-1.58-.37.2,0,1.8a.1.1,0,0,1-.2,0l0-1.71-.39.17,0,2a.1.1,0,0,1-.2,0l0-1.92L17.5,25l0,2.15a.1.1,0,0,1-.2,0l0-2.1-.47.1,0,2.29a.1.1,0,0,1-.2,0l0-2.26-.49.05,0,2.35a.1.1,0,0,1-.2,0l0-2.34h-.56A5.36,5.36,0,0,1,15.27,27l-.06.35a4.52,4.52,0,0,0,.46.59c.18.19.37.38.56.56A12.08,12.08,0,0,0,18.49,28.15Z"/><path class="cls-2" d="M4.1,17.87A9.74,9.74,0,0,0,.62,22.73a42,42,0,0,1,6-1.8,13.45,13.45,0,0,1,5.18-.22l.11,0,0,.1a2.21,2.21,0,0,0,.2.38,1.87,1.87,0,0,0,.21.26,7.89,7.89,0,0,0,3.35,0,6.2,6.2,0,0,0,2.75-1.44q.56-.62,1.05-1.25t.92-1.29a17.46,17.46,0,0,0,1.23-2.85,29.78,29.78,0,0,0,.91-3.39c-1.41-.12-2.83-.23-4.24-.31s-3.06-.14-4.48-.17a10.31,10.31,0,0,0-1,1.92,5,5,0,0,0-.39,1.7v.17l-.16,0A19.33,19.33,0,0,0,4.1,17.87Z"/><path class="cls-6" d="M15.45,13.09h0l0,0h0l0,0h0l0,0h0a5,5,0,0,0-.43.57l0,0h-.05v0h0v0h0v0h0v0h0v0h0v0h0v0h0v0h0l0,.06h0v0h0v0h0l-.05.26h0l0,.12h0v0h0v0h0v0h0v0h0v0h0v0h0s0,.07,0,.1,0,.09,0,.13h0v.06h0v0h0v0h0a2.69,2.69,0,0,0,.56,1.39h0l0,.06h0l0,0h0l0,0h0l0,0h0l0,0h0l0,0h0l0,0,0,0h0l0,0h0l0,0h0a2.71,2.71,0,0,0,3.4.09h0l0,0h0l0,0,0,0,0,0,0,0,0,0,0,0,0,0,0,0,0,0,0,0,0,0,0,0,0,0,0,0v0l0,0h0a2.71,2.71,0,0,0,0-3.29h0l0,0v0l0,0,0,0,0,0,0,0,0,0,0,0,0,0,0,0,0,0,0,0,0,0,0,0,0,0,0,0h0l0,0h0a2.71,2.71,0,0,0-3.4.09Zm-.15,4,0,0,0,0Zm1.05-.82a.2.2,0,1,1,0-.4c.38,0,1.58-.12,1.76-.51a5.53,5.53,0,0,0-.9-.18c0,.23-.25.4-.62.4-.67,0-.71-.92-.36-.92a11.21,11.21,0,0,1,1.47.2l.35.09a1,1,0,0,0-.33-.38,2.82,2.82,0,0,0-1.3-.42.2.2,0,1,1,0-.4,3.21,3.21,0,0,1,1.49.49,1.33,1.33,0,0,1,.59,1.06.2.2,0,0,1,0,.06h0c0,.74-1.66.92-2.17.92Zm2.47-2.71h0a2.29,2.29,0,0,1,0,3.23h0a2.29,2.29,0,0,1-3.23,0h0a2.29,2.29,0,0,1,0-3.23h0a2.29,2.29,0,0,1,3.23,0Zm-.29.29h0a1.89,1.89,0,0,1,0,2.66h0a1.89,1.89,0,0,1-2.66,0h0a1.89,1.89,0,0,1,0-2.66h0A1.89,1.89,0,0,1,18.53,13.8Z"/><path class="cls-7" d="M18.53,13.8l0,0h0l0,0h0a1.89,1.89,0,0,0-2.52,0h0l0,0h0l0,0h0l0,0h0a1.89,1.89,0,0,0,0,2.55h0l0,0h0l0,0h0l0,0h0l0,0h0l0,0h0a1.89,1.89,0,0,0,2.48,0h0l0,0h0l0,0h0l0,0h0l0,0h0a1.89,1.89,0,0,0,0-2.55h0l0,0Zm-2.18,2.42a.2.2,0,1,1,0-.4c.38,0,1.58-.12,1.76-.51a5.53,5.53,0,0,0-.9-.18c0,.23-.25.4-.62.4-.67,0-.71-.92-.36-.92a11.21,11.21,0,0,1,1.47.2l.35.09a1,1,0,0,0-.33-.38,2.82,2.82,0,0,0-1.3-.42.2.2,0,1,1,0-.4,3.21,3.21,0,0,1,1.49.49,1.33,1.33,0,0,1,.59,1.06.2.2,0,0,1,0,.06h0C18.51,16.05,16.86,16.23,16.35,16.23Z"/><path class="cls-8" d="M12.28,21.87a.82.82,0,0,0,0,.54,1,1,0,0,0,.53.5h0a4.8,4.8,0,0,0,1.88.36,5.43,5.43,0,0,0,1.75-.49.2.2,0,1,1,.15.37,5.77,5.77,0,0,1-1.88.52,4.89,4.89,0,0,1-1.86-.32h.19a1.85,1.85,0,0,0,1,.65,7.17,7.17,0,0,0,4.28-.52,7.61,7.61,0,0,0,2.48-1.89,12.67,12.67,0,0,0,1.91-2.87q.23-.47.43-1a28.77,28.77,0,0,0,1.59-7l-.71-.07a11.23,11.23,0,0,1-.2,1.37,4.73,4.73,0,0,1-.39,1.12.2.2,0,1,1-.36-.18,4.34,4.34,0,0,0,.35-1,10.87,10.87,0,0,0,.19-1.32L23,11.32C21.82,16.89,19.25,23.29,12.28,21.87Z"/><path class="cls-4" d="M36.87,13.47c0-.39-.37-.79-1-1.19a12.8,12.8,0,0,0-3-1.27,56.56,56.56,0,0,0-11.2-1.9c-.58,0-2.15-.15-4.1-.19a56.11,56.11,0,0,0-8,.29C7.33,9.5,5.61,10,5.3,10.9c3.08-.68,9.85-.64,16.45-.1C28.06,11.31,34.23,12.27,36.87,13.47Z"/><path class="cls-6" d="M13.45,13.77a3.31,3.31,0,0,1,.83.3,2.45,2.45,0,0,1,.23-.47,4.4,4.4,0,0,1,.3-.42,4.32,4.32,0,0,0-.88-.29,3.27,3.27,0,0,0-1.11,0,3.65,3.65,0,0,0-.25.87A3.26,3.26,0,0,1,13.45,13.77Z"/><path class="cls-3" d="M13.18,29.42l-1.36,1.31a16.19,16.19,0,0,0,1.72.78Z"/><path class="cls-2" d="M19.36,30.79h.2l0,0,0,0h0l0,0,0,0v0l0,0v0l0,0,0,0h0l0,0,0,0h0l0,0,0,0h0l0,0,0,0,0,0,0,0h0l.06-.07h0l0,0,.09-.1,0,0,0,0h0l0,0,0,0h0l0,0,0,0,0,0,0,0h0l0,0,0,0h0l0,0,0,0,0,0,0,0h0l0,0,0,0h0l0-.06,0,0,0,0h0l0,0,0,0,0,0,0,0h0l0,0,0,0h0l0,0v0l0,0,0,0h0l0,0,0,0,0,0,0,0h0l0,0,.46-.56h0l0,0,0,0,0,0h0l0,0,0,0,0,0h0l0,0,0,0h0l0,0,0,0,0,0h0l0,0,0,0,0,0h0l0,0,0,0h0l0,0,0,0,0,0h0v0l0,0,0,0h0l0,0,0,0h0l0,0,0,0v0h0v0l0,0,0,0h0v0h0v-.06h0v-.06h0l.29-.39c.32-.44.64-.88.95-1.34a12.74,12.74,0,0,1-1,.92,10.63,10.63,0,0,1-4.19,2.2h-.72l-.09,0h0l-.17,0h-.68l-.21,0Z"/><path class="cls-3" d="M32.19,26.39l-4.26-3.28.91,3,.08.25h-.26l-2.26.09.11,1.6v.12l-.11.06-7.24,4.38h.23A16.27,16.27,0,0,0,32.19,26.39Z"/><path class="cls-2" d="M14.89,29.45l1-.73c-.17-.15-.33-.32-.48-.48l-.25-.29Z"/><path class="cls-3" d="M14.13,31.72,14.86,27l-1.48,1.13.6,3.52Z"/><path class="cls-4" d="M16.5,32.34l-.3-2a.2.2,0,0,1,0-.13h0l.39-.64-.49-.47-.64.49.25.5a.2.2,0,0,1,0,.14h0l-.45,1.9Q15.89,32.23,16.5,32.34Z"/><path class="cls-9" d="M14.13,31.72l.28-1.83v0L14.86,27l-1.48,1.13.14.82h0L14,31.67l-.44-.16-.35-2.09-1.36,1.31-.37-.2,1.65-1.58L13,28.1h0a.2.2,0,0,1,.08-.19L15,26.43a3.65,3.65,0,0,0,0-1.19l-.28,0-.62-.09h0a2.24,2.24,0,0,1-1.26-.81,1.61,1.61,0,0,1-.26-1.09,1.32,1.32,0,0,1-.61-.65,1.26,1.26,0,0,1,0-1l-.11-.15a2.56,2.56,0,0,1-.19-.35,13.27,13.27,0,0,0-4.92.23A40.34,40.34,0,0,0,1.15,23h0l-.76.28L0,23.39.11,23a10.15,10.15,0,0,1,3.74-5.45,19.21,19.21,0,0,1,7.89-3.22c-.78-.16-1.5-.32-2.17-.49-3-.76-4.79-1.69-4.75-2.59h0s0,0,0-.07h0v-.08h0c.1-1.26,2.07-1.94,4.65-2.28.91-.12,1.91-.2,2.92-.25a2.18,2.18,0,0,0-.73-2.17,3.08,3.08,0,0,1-.83-1.3V5l0-.05c.31-1.09,3.2-1.57,6.74-1.57a51.38,51.38,0,0,1,6.78.46A24.2,24.2,0,0,1,29.9,5.16c1.11.46,1.77,1,1.71,1.66v0l0,0a6.17,6.17,0,0,1-.87,1.25,4.61,4.61,0,0,0-1,1.68c1.2.25,2.3.52,3.28.82a13.19,13.19,0,0,1,3.12,1.31c.79.5,1.22,1.05,1.17,1.64a1.15,1.15,0,0,1,0,.23l0,0a.2.2,0,0,1-.06.07c-.34.79-2.21,1.36-5,1.63-1.43.14-3.11.21-5,.21l0,.29a14.62,14.62,0,0,0,0,4.36l.62,2,4.72,3.63-.25.32-4.26-3.28.91,3,.08.25h-.27l-2.26.09.11,1.6v.12l-.11.06-7.24,4.38q-.58,0-1.15-.06l.49-.56h0l.7-.8h0L17,29.61l-.42.7.3,2.1-.42-.07-.3-2a.2.2,0,0,1,0-.13h0l.39-.64-.49-.47-.64.49.25.5a.2.2,0,0,1,0,.14h0l-.45,1.9L14.91,32l.43-1.81-.2-.4L14.8,30l-.28,1.83-.39-.13Zm.76-2.28.93-.71a6.86,6.86,0,0,1-.49-.52L15.12,28l-.23,1.49Zm1.84-.56,2.64,1.9h.2c.78-.9,1.55-1.81,2.29-2.75h0c.33-.42.65-.84,1-1.26s.64-.88.95-1.34a12.74,12.74,0,0,1-1,.92,10.63,10.63,0,0,1-4.21,2.21,11.22,11.22,0,0,1-1.85.34Zm2.17,3.26h0l-.25.28,7.45-4.51L26,26.25V26h.21l2.21-.09-1-3.4L27.17,22l-.31-1-.35.64h0c-.48.86-.92,1.64-1.36,2.36h0l0,.08h0l0,.07v0l0,.05,0,0,0,0,0,.05v0c-.58.93-1.15,1.76-1.75,2.58-1.32,1.79-2.78,3.48-4.25,5.15Zm-.4-4a10.56,10.56,0,0,0,3.79-2,13.68,13.68,0,0,0,2.12-2.13,24.43,24.43,0,0,0,2.3-3.63,15,15,0,0,1,0-4.43,25.71,25.71,0,0,1,1.12-4.16c-.81-.11-1.64-.21-2.49-.3q-.14,1.17-.34,2.25a19.73,19.73,0,0,1-3,7.84l0,1a.11.11,0,0,1-.1.11.11.11,0,0,1-.1-.11l0-.78-.32.4,0,1.05a.1.1,0,0,1-.2,0l0-.83,0,0-.29.32,0,1.21a.1.1,0,1,1-.2,0l0-1-.3.28,0,1.45a.1.1,0,0,1-.2,0l0-1.28-.33.26,0,1.72a.1.1,0,1,1-.2,0l0-1.58-.4.26,0,1.7a.1.1,0,0,1-.2,0l0-1.58-.37.2,0,1.8a.1.1,0,0,1-.2,0l0-1.71-.39.17,0,2a.1.1,0,0,1-.2,0l0-1.92L17.5,25l0,2.15a.1.1,0,0,1-.2,0l0-2.1-.47.1,0,2.29a.1.1,0,0,1-.2,0l0-2.26-.49.05,0,2.35a.1.1,0,0,1-.2,0l0-2.34h-.56A5.36,5.36,0,0,1,15.27,27l-.06.35a4.52,4.52,0,0,0,.46.59c.18.19.37.38.56.56a12.08,12.08,0,0,0,2.26-.37Zm8.74-12.77c1.81,0,3.45-.08,4.84-.21,2.61-.26,4.34-.71,4.68-1.31a35.45,35.45,0,0,0-8.52-1.95,30.46,30.46,0,0,0-1,3.47Zm-8.8,8.82a7.61,7.61,0,0,0,2.48-1.89c2.74-3.09,3.42-7,3.93-10.81l-.71-.07a11.23,11.23,0,0,1-.2,1.37,4.73,4.73,0,0,1-.39,1.12.2.2,0,1,1-.36-.18,4.34,4.34,0,0,0,.35-1,10.87,10.87,0,0,0,.19-1.32L23,11.32l0,.19a29.83,29.83,0,0,1-.89,3.29,19.52,19.52,0,0,1-.81,2h0l-.11.24v0l0,.08v0l-.05.11h0l0,.08,0,0,0,0,0,0h0l0,0,0,0,0,0a10.36,10.36,0,0,1-1.74,2.38l-.31.29h0a7.08,7.08,0,0,1-6.5,1.51.82.82,0,0,0,0,.54,1,1,0,0,0,.53.5h0a4.8,4.8,0,0,0,1.88.36,5.43,5.43,0,0,0,1.75-.49.2.2,0,1,1,.15.37,5.77,5.77,0,0,1-1.88.52,4.89,4.89,0,0,1-1.86-.32,1.17,1.17,0,0,0,.19.7,1.85,1.85,0,0,0,1,.65,7.91,7.91,0,0,0,4.28-.52Zm9.7-12.73.23,0h0a36.1,36.1,0,0,1,8.51,2c0-.39-.37-.79-1-1.18a12.8,12.8,0,0,0-3-1.27A68.32,68.32,0,0,0,12.59,9h-.13c-1,0-2,.13-2.91.25-2.21.29-3.94.8-4.25,1.68,3.07-.68,9.81-.64,16.39-.1a61.54,61.54,0,0,1,6.44.68Zm-24,9.59a.1.1,0,1,1,.2,0v.45l.35-.1v-.65a.1.1,0,1,1,.2,0v.6l.3-.08v-.71a.1.1,0,1,1,.2,0v.66l.35-.09v-.76a.1.1,0,0,1,.2,0v.71L6.29,21l0-.84a.1.1,0,1,1,.2,0l0,.8.16,0,.24,0,0-.93a.1.1,0,0,1,.2,0l0,.89.47-.08,0-1a.1.1,0,0,1,.2,0l0,1,.46-.06,0-1.08a.1.1,0,0,1,.2,0l0,1.05.44,0,0-1.08a.1.1,0,0,1,.2,0l0,1.06.44,0,0-1.11a.1.1,0,1,1,.2,0l0,1.1h.47l0-1a.1.1,0,0,1,.2,0l0,1,.42,0,0-.93a.1.1,0,0,1,.2,0l0,.95.43.05,0-.83a.1.1,0,1,1,.2,0l0,.86.19,0,.11,0,0,.1a2.21,2.21,0,0,0,.2.38,1.87,1.87,0,0,0,.21.26,6.71,6.71,0,0,0,6.11-1.42q.56-.62,1.05-1.25t.92-1.29a17.46,17.46,0,0,0,1.23-2.85,29.88,29.88,0,0,0,.91-3.39l-.95-.08c-2.65-.22-5.33-.35-7.78-.39a10.52,10.52,0,0,0-.87,1.6,3.74,3.74,0,0,1,1,.07,4.82,4.82,0,0,1,1.08.37,3.1,3.1,0,1,1-.93,1.61,3,3,0,0,0-.81-.3,2.88,2.88,0,0,0-.86,0,2.94,2.94,0,0,0,0,.31v.17l-.16,0A19.33,19.33,0,0,0,4.1,17.87,9.74,9.74,0,0,0,.62,22.73L1,22.6A21,21,0,0,1,5.8,19.54,16.55,16.55,0,0,1,12.4,18.2a.2.2,0,0,1,0,.4A16.15,16.15,0,0,0,6,19.91a18.81,18.81,0,0,0-3.79,2.26q1-.33,1.93-.61v-.5Zm12.26-4.84c.51,0,2.16-.18,2.17-.92h0a.2.2,0,0,0,0-.06,1.33,1.33,0,0,0-.59-1.06,3.21,3.21,0,0,0-1.49-.49.2.2,0,1,0,0,.4,2.82,2.82,0,0,1,1.3.42,1,1,0,0,1,.33.38l-.35-.09a11.21,11.21,0,0,0-1.47-.2c-.35,0-.3.92.36.92.37,0,.59-.16.62-.4a5.53,5.53,0,0,1,.9.18c-.17.39-1.38.51-1.76.51a.2.2,0,1,0,0,.4ZM12.5,12.57a10.69,10.69,0,0,1,.9-1.77,38.56,38.56,0,0,0-8.16.53C5.31,12,7,12.75,9.67,13.44c.74.19,1.56.37,2.44.55a5.25,5.25,0,0,1,.39-1.41Zm2.78.67a4.93,4.93,0,0,0-.43.57l0,0a2.67,2.67,0,0,0-.23.58l-.05.26h0a2.7,2.7,0,1,0,.75-1.46Zm-1.83.53a3.31,3.31,0,0,1,.83.3,2.39,2.39,0,0,1,.19-.4,3.11,3.11,0,0,1,.34-.5,4.32,4.32,0,0,0-.87-.28,3.27,3.27,0,0,0-1.1,0,6.55,6.55,0,0,0-.23.76l0,.11a3.26,3.26,0,0,1,.87.06Zm5.37-.25a2.29,2.29,0,0,0-3.23,0h0a2.29,2.29,0,0,0,0,3.23h0a2.29,2.29,0,0,0,3.23,0h0a2.29,2.29,0,0,0,0-3.23Zm-.29.29a1.89,1.89,0,0,0-2.66,0h0a1.89,1.89,0,0,0,0,2.66h0a1.89,1.89,0,0,0,2.66,0h0a1.89,1.89,0,0,0,0-2.66ZM29.3,9.73a4.89,4.89,0,0,1,1.11-1.86,6,6,0,0,0,.8-1.13c0-.42-.55-.84-1.46-1.21a23.82,23.82,0,0,0-5.42-1.26,51,51,0,0,0-6.73-.46c-3.3,0-6,.38-6.33,1.23a1.78,1.78,0,0,0,.15.34A7.09,7.09,0,0,1,14,4.54a16.39,16.39,0,0,1,3.72-.11.1.1,0,0,1,0,.2A16.2,16.2,0,0,0,14,4.74a6.89,6.89,0,0,0-2.49.81,4.55,4.55,0,0,0,.41.5,7.34,7.34,0,0,1,2.42-.79,14.27,14.27,0,0,1,3.1-.09.1.1,0,1,1,0,.2,14.09,14.09,0,0,0-3.06.09,7.17,7.17,0,0,0-2.31.74,5.14,5.14,0,0,1,.41.49,5,5,0,0,1,2-.69,14.56,14.56,0,0,1,2.73,0,.1.1,0,1,1,0,.2,14.38,14.38,0,0,0-2.69,0,4.75,4.75,0,0,0-1.88.66,2.15,2.15,0,0,1,.2.44,5.39,5.39,0,0,1,1.48-.43,14.35,14.35,0,0,1,2.45-.07.1.1,0,0,1,0,.2,14.18,14.18,0,0,0-2.42.07,5.21,5.21,0,0,0-1.46.43,2.32,2.32,0,0,1,0,.58A6.9,6.9,0,0,1,16,7.63h.39a.1.1,0,0,1,0,.2H16a6.76,6.76,0,0,0-3.18.48q0,.11,0,.23h.07A73.61,73.61,0,0,1,29.3,9.73Z"/></svg>