<?xml version="1.0" encoding="utf-8"?>
<!-- Generator: Adobe Illustrator 21.1.0, SVG Export Plug-In . SVG Version: 6.00 Build 0)  -->
<svg version="1.1" id="OBJECTS" xmlns="http://www.w3.org/2000/svg" xmlns:xlink="http://www.w3.org/1999/xlink" x="0px" y="0px"
	 viewBox="0 0 134.6 77.2" style="enable-background:new 0 0 134.6 77.2;" xml:space="preserve">
<style type="text/css">
	.st0{fill:#90E6FB;}
	.st1{fill:#7FC9F8;}
</style>
<g>
	<g>
		<path class="st0" d="M8.9,37.1c0,0-1-0.2-3.4,2.5c-2.5,2.7-4.3,6.7-4.3,6.7s-2.9,6,0.3,12.5c3.3,6.5,9.3,4.9,9.3,4.9
			s5.4-1.2,6.8-8.7c1.4-7.4-2.8-12.9-2.8-12.9S10.9,36.6,8.9,37.1z"/>
		<g>
			<path class="st1" d="M10.5,77.2l-0.6-29c0-0.9,0-2.4-0.8-2.4c-0.8,0-1,1.4-1,2.4l-0.5,29H10.5z"/>
			<path class="st1" d="M10,51.4l2.3-2c0.1-0.1,0.4-0.4,0.6-0.3c0.2,0.1-0.1,0.5-0.2,0.6l-2.8,3.5L10,51.4z"/>
			<path class="st1" d="M10,57.6l2.3-2c0.1-0.1,0.4-0.4,0.6-0.3c0.2,0.1-0.1,0.5-0.2,0.6l-2.8,3.5L10,57.6z"/>
			<path class="st1" d="M8.1,53.9l-2.3-2c-0.1-0.1-0.4-0.4-0.6-0.3c-0.2,0.1,0.1,0.5,0.2,0.6l2.8,3.5L8.1,53.9z"/>
			<path class="st1" d="M8.1,60l-2.3-2c-0.1-0.1-0.4-0.4-0.6-0.3c-0.2,0.1,0.1,0.5,0.2,0.6l2.8,3.5L8.1,60z"/>
		</g>
	</g>
	<g>
		<path class="st1" d="M100.9,1.5v74.2c0,0.8,0.6,1.5,1.3,1.5h22.1c0.7,0,1.3-0.7,1.3-1.5V32.1c0-16.4-16.9-28.2-22.8-31.8
			C102-0.3,100.9,0.4,100.9,1.5z"/>
		<g>
			<rect x="105.1" y="26.9" class="st0" width="5" height="5"/>
			<rect x="116.4" y="26.9" class="st0" width="5" height="5"/>
		</g>
		<g>
			<rect x="105.1" y="37.9" class="st0" width="5" height="5"/>
			<rect x="116.4" y="37.9" class="st0" width="5" height="5"/>
		</g>
	</g>
	<g>
		<path class="st1" d="M21.4,77.2h22.5V29.7H21.4V77.2z"/>
		<rect x="23.5" y="32.4" class="st0" width="18.1" height="2"/>
		<rect x="23.5" y="37.9" class="st0" width="18.1" height="2"/>
		<rect x="23.5" y="43.4" class="st0" width="18.1" height="2"/>
	</g>
	<g>
		<g>
			<g>
				<path class="st1" d="M87.5,49.3v-2.1h2.7c0-10.7-7-16.7-15.6-17.1v-8.6h-0.5v8.6c-6.4,0.7-13.6,6.4-13.7,17.1h1.3v2.1H51.1v27.8
					h47.1V49.3H87.5z"/>
			</g>
			<rect x="63" y="47.4" class="st0" width="23.5" height="1.2"/>
		</g>
		<g>
			<g>
				<rect x="54.6" y="55.2" class="st0" width="4" height="4"/>
				<ellipse class="st0" cx="56.6" cy="55.3" rx="2" ry="3.7"/>
			</g>
			<g>
				<rect x="62" y="55.1" class="st0" width="4" height="4"/>
				<ellipse class="st0" cx="63.9" cy="55.2" rx="2" ry="3.7"/>
			</g>
			<g>
				<rect x="69.2" y="55.2" class="st0" width="4" height="4"/>
				<ellipse class="st0" cx="71.2" cy="55.3" rx="2" ry="3.7"/>
			</g>
			<g>
				<rect x="76.6" y="55.1" class="st0" width="4" height="4"/>
				<ellipse class="st0" cx="78.6" cy="55.2" rx="2" ry="3.7"/>
			</g>
			<g>
				<rect x="83.6" y="55.1" class="st0" width="4" height="4"/>
				<ellipse class="st0" cx="85.6" cy="55.2" rx="2" ry="3.7"/>
			</g>
			<g>
				<rect x="90.8" y="55.2" class="st0" width="4" height="4"/>
				<ellipse class="st0" cx="92.8" cy="55.3" rx="2" ry="3.7"/>
			</g>
		</g>
	</g>
	<g>
		<path class="st0" d="M126.2,40.1c0,0-0.9-0.1-3.2,2.3c-2.3,2.5-4,6.2-4,6.2s-2.7,5.6,0.3,11.6c3,6,8.6,4.5,8.6,4.5s5-1.1,6.3-8
			c1.3-6.9-2.6-11.9-2.6-11.9S128.1,39.6,126.2,40.1z"/>
		<g>
			<path class="st1" d="M127.7,77.2l-0.6-26.9c0-0.9,0-2.2-0.8-2.2c-0.7,0-0.9,1.3-0.9,2.2L125,77.2H127.7z"/>
			<path class="st1" d="M127.2,53.3l2.1-1.9c0.1-0.1,0.4-0.4,0.6-0.3c0.2,0.1-0.1,0.5-0.2,0.6l-2.6,3.2L127.2,53.3z"/>
			<path class="st1" d="M127.2,59l2.1-1.9c0.1-0.1,0.4-0.4,0.6-0.3c0.2,0.1-0.1,0.5-0.2,0.6l-2.6,3.2L127.2,59z"/>
			<path class="st1" d="M125.4,55.6l-2.1-1.9c-0.1-0.1-0.4-0.4-0.6-0.3c-0.2,0.1,0.1,0.5,0.2,0.6l2.6,3.2L125.4,55.6z"/>
			<path class="st1" d="M125.4,61.2l-2.1-1.9c-0.1-0.1-0.4-0.4-0.6-0.3c-0.2,0.1,0.1,0.5,0.2,0.6l2.6,3.2L125.4,61.2z"/>
		</g>
	</g>
	<g>
		<path class="st0" d="M45.7,44.6c0,0-0.8-0.1-2.8,2.1c-2,2.2-3.5,5.5-3.5,5.5S37,57,39.6,62.3c2.6,5.3,7.5,4,7.5,4s4.4-1,5.6-7
			c1.1-6-2.3-10.5-2.3-10.5S47.3,44.2,45.7,44.6z"/>
		<g>
			<path class="st1" d="M47,77.2l-0.5-23.6c0-0.8,0-1.9-0.7-1.9c-0.6,0-0.8,1.2-0.8,1.9l-0.4,23.6H47z"/>
			<path class="st1" d="M46.5,56.2l1.9-1.7c0.1-0.1,0.4-0.3,0.5-0.2c0.1,0.1-0.1,0.4-0.2,0.5l-2.2,2.8L46.5,56.2z"/>
			<path class="st1" d="M46.5,61.2l1.9-1.7c0.1-0.1,0.4-0.3,0.5-0.2c0.1,0.1-0.1,0.4-0.2,0.5l-2.2,2.8L46.5,61.2z"/>
			<path class="st1" d="M45,58.2l-1.9-1.7c-0.1-0.1-0.4-0.3-0.5-0.2c-0.1,0.1,0.1,0.4,0.2,0.5l2.2,2.8L45,58.2z"/>
			<path class="st1" d="M45,63.2l-1.9-1.7c-0.1-0.1-0.4-0.3-0.5-0.2c-0.1,0.1,0.1,0.4,0.2,0.5l2.2,2.8L45,63.2z"/>
		</g>
	</g>
</g>
</svg>
